<svg width="581" height="554" viewBox="0 0 581 554" fill="none" xmlns="http://www.w3.org/2000/svg">
<path fill-rule="evenodd" clip-rule="evenodd" d="M294.291 0.023587C356.388 0.79592 416.59 20.5127 466.067 56.2816C515.545 92.0504 551.692 141.989 569.207 198.77C586.722 255.552 584.682 316.189 563.388 371.785L440.465 329.023C452.168 298.47 453.289 265.147 443.663 233.943C434.038 202.738 414.173 175.295 386.983 155.638C359.793 135.981 326.708 125.146 292.583 124.721C258.458 124.297 225.088 134.306 197.369 153.28C169.65 172.253 149.041 199.194 138.564 230.148C128.087 261.102 128.295 294.442 139.157 325.275C150.019 356.109 170.963 382.814 198.917 401.472C226.871 420.131 260.363 429.761 294.48 428.95L297.743 553.62C235.66 555.095 174.715 537.571 123.848 503.619C72.9817 469.667 34.8705 421.073 15.1056 364.966C-4.65934 308.859 -5.0376 248.192 14.0263 191.865C33.0901 135.538 70.5927 86.5163 121.033 51.9902C171.472 17.464 232.194 -0.748747 294.291 0.023587Z" fill="#121212"/>
</svg>
