<svg width="466" height="573" viewBox="0 0 466 573" fill="none" xmlns="http://www.w3.org/2000/svg">
<path fill-rule="evenodd" clip-rule="evenodd" d="M235.572 0.0188807C285.278 0.637111 333.469 16.4198 373.074 45.0518C412.679 73.6837 441.614 113.658 455.634 159.11C469.654 204.562 468.022 253.1 450.976 297.603L352.58 263.373C361.947 238.917 362.845 212.243 355.14 187.264C347.435 162.286 331.534 140.318 309.769 124.584C288.004 108.849 261.521 100.176 234.205 99.836C206.888 99.4962 180.177 107.508 157.988 122.696C135.8 137.884 119.303 159.449 110.917 184.227C102.53 209.005 102.697 235.692 111.391 260.374C120.086 285.055 136.851 306.431 159.227 321.367C181.603 336.303 208.413 344.011 235.723 343.362L238.335 443.157C188.639 444.338 139.855 430.311 99.1372 403.133C58.4198 375.955 27.9128 337.057 12.0916 292.145C-3.72967 247.233 -4.03246 198.671 11.2276 153.583C26.4877 108.495 56.5075 69.2538 96.8831 41.6166C137.259 13.9795 185.865 -0.59935 235.572 0.0188807Z" fill="#D9D9D9"/>
<path d="M303.762 508.113C303.762 543.949 273.279 573 235.676 573C198.074 573 167.591 543.949 167.591 508.113C167.591 472.277 198.074 443.227 235.676 443.227C273.279 443.227 303.762 472.277 303.762 508.113Z" fill="#121212"/>
</svg>
