<svg width="62" height="78" viewBox="0 0 62 78" fill="none" xmlns="http://www.w3.org/2000/svg">
<g clip-path="url(#clip0_130_221)">
<path d="M0 20C0 8.9543 8.9543 0 20 0H42C53.0457 0 62 8.9543 62 20V42C62 53.0457 53.0457 62 42 62H41L35.24 71.216C33.2817 74.3493 28.7183 74.3494 26.76 71.216L21 62H20C8.95431 62 0 53.0457 0 42V20Z" fill="#121212"/>
<path fill-rule="evenodd" clip-rule="evenodd" d="M30.8003 15.0012C33.9232 15.04 36.9509 16.0316 39.4392 17.8305C41.9275 19.6293 43.7454 22.1408 44.6262 24.9964C45.5071 27.8521 45.4045 30.9016 44.3336 33.6976L38.1516 31.547C38.7402 30.0105 38.7965 28.3346 38.3125 26.7653C37.8284 25.196 36.8294 23.8158 35.4619 22.8273C34.0945 21.8387 32.4306 21.2938 30.7144 21.2724C28.9982 21.2511 27.32 21.7544 25.926 22.7087C24.5319 23.6629 23.4955 25.0177 22.9686 26.5745C22.4417 28.1312 22.4522 29.8079 22.9984 31.3586C23.5447 32.9092 24.598 34.2522 26.0038 35.1906C27.4096 36.129 29.094 36.6133 30.8098 36.5725L30.9739 42.8423C27.8517 42.9165 24.7867 42.0352 22.2285 40.3277C19.6704 38.6202 17.7537 36.1763 16.7597 33.3546C15.7657 30.5329 15.7467 27.4819 16.7054 24.6492C17.6642 21.8164 19.5502 19.351 22.0869 17.6147C24.6236 15.8783 27.6774 14.9623 30.8003 15.0012Z" fill="white"/>
<path d="M35.0845 46.9233C35.0845 49.1748 33.1694 51 30.8069 51C28.4444 51 26.5293 49.1748 26.5293 46.9233C26.5293 44.6719 28.4444 42.8467 30.8069 42.8467C33.1694 42.8467 35.0845 44.6719 35.0845 46.9233Z" fill="white"/>
</g>
<defs>
<clipPath id="clip0_130_221">
<rect width="62" height="78" fill="white"/>
</clipPath>
</defs>
</svg>
