<svg width="13" height="16" viewBox="0 0 13 16" fill="none" xmlns="http://www.w3.org/2000/svg">
<path fill-rule="evenodd" clip-rule="evenodd" d="M6.57791 0.000527211C7.96588 0.0177902 9.31151 0.458495 10.4174 1.25799C11.5233 2.05749 12.3313 3.17369 12.7228 4.44286C13.1143 5.71204 13.0687 7.06737 12.5927 8.31004L9.84517 7.35423C10.1067 6.67132 10.1318 5.9265 9.91665 5.22903C9.7015 4.53155 9.25749 3.91814 8.64974 3.47878C8.04199 3.03942 7.3025 2.79723 6.53975 2.78774C5.77699 2.77826 5.03112 3.00197 4.41155 3.42607C3.79197 3.85017 3.33132 4.45232 3.09715 5.14421C2.86298 5.83609 2.86762 6.58129 3.1104 7.27047C3.35318 7.95965 3.82132 8.55655 4.44614 8.9736C5.07095 9.39065 5.81956 9.6059 6.58215 9.58778L6.65507 12.3744C5.26742 12.4073 3.90519 12.0157 2.76823 11.2568C1.63127 10.4979 0.779416 9.41171 0.337636 8.15762C-0.104144 6.90353 -0.112599 5.54753 0.313512 4.28852C0.739622 3.02952 1.57787 1.93379 2.70529 1.16207C3.8327 0.390351 5.18995 -0.0167358 6.57791 0.000527211Z" fill="#D2D2D2"/>
<path d="M8.482 14.1881C8.482 15.1888 7.63082 16 6.58084 16C5.53086 16 4.67969 15.1888 4.67969 14.1881C4.67969 13.1875 5.53086 12.3763 6.58084 12.3763C7.63082 12.3763 8.482 13.1875 8.482 14.1881Z" fill="#121212"/>
</svg>
