<svg width="193" height="39" viewBox="0 0 193 39" fill="none" xmlns="http://www.w3.org/2000/svg">
<path d="M178.902 39H175.626V15.3727H178.902V17.6882C179.427 16.8796 180.099 16.2233 180.918 15.7193C181.737 15.2152 182.703 14.9632 183.816 14.9632C184.961 14.9632 186.032 15.1785 187.03 15.609C188.038 16.0396 188.92 16.6381 189.676 17.4047C190.432 18.1608 191.025 19.0376 191.456 20.0352C191.887 21.0328 192.102 22.1039 192.102 23.2485C192.102 24.3931 191.887 25.4694 191.456 26.4775C191.025 27.4856 190.432 28.373 189.676 29.1395C188.92 29.8956 188.038 30.4889 187.03 30.9195C186.032 31.35 184.961 31.5653 183.816 31.5653C182.703 31.5653 181.737 31.3132 180.918 30.8092C180.099 30.2946 179.427 29.6383 178.902 28.8403V39ZM183.785 18.1293C182.871 18.1293 182.068 18.3603 181.375 18.8223C180.682 19.2844 180.141 19.9039 179.753 20.681C179.364 21.4476 179.17 22.3034 179.17 23.2485C179.17 24.1936 179.364 25.0547 179.753 25.8317C180.141 26.6088 180.682 27.2284 181.375 27.6904C182.068 28.1524 182.871 28.3835 183.785 28.3835C184.688 28.3835 185.518 28.1577 186.274 27.7062C187.03 27.2441 187.634 26.6246 188.085 25.8475C188.537 25.0704 188.762 24.2041 188.762 23.2485C188.762 22.3139 188.537 21.4581 188.085 20.681C187.644 19.9039 187.046 19.2844 186.289 18.8223C185.533 18.3603 184.699 18.1293 183.785 18.1293Z" fill="#222222"/>
<path d="M158.876 25.2183V15.3736H162.152V24.415C162.152 25.1186 162.325 25.7591 162.672 26.3367C163.018 26.9142 163.48 27.3763 164.058 27.7228C164.636 28.0588 165.271 28.2268 165.964 28.2268C166.667 28.2268 167.303 28.0588 167.87 27.7228C168.447 27.3763 168.904 26.9142 169.24 26.3367C169.587 25.7591 169.76 25.1186 169.76 24.415V15.3736H173.036L173.052 31.1251H169.776L169.76 29.424C169.224 30.075 168.558 30.5896 167.76 30.9676C166.961 31.3456 166.106 31.5347 165.192 31.5347C164.026 31.5347 162.966 31.2511 162.01 30.6841C161.055 30.117 160.293 29.3557 159.726 28.4001C159.159 27.4445 158.876 26.3839 158.876 25.2183Z" fill="#222222"/>
<path d="M149.392 31.5337C147.943 31.5337 146.62 31.1609 145.423 30.4153C144.236 29.6698 143.286 28.6722 142.572 27.4226C141.868 26.1624 141.516 24.7711 141.516 23.2484C141.516 22.0933 141.721 21.017 142.131 20.0194C142.54 19.0113 143.102 18.1292 143.816 17.3731C144.541 16.6065 145.381 16.008 146.336 15.5775C147.292 15.1469 148.31 14.9316 149.392 14.9316C150.841 14.9316 152.159 15.3044 153.346 16.05C154.543 16.7956 155.493 17.7984 156.197 19.0585C156.911 20.3186 157.268 21.7153 157.268 23.2484C157.268 24.393 157.063 25.4641 156.654 26.4617C156.244 27.4593 155.677 28.3414 154.952 29.108C154.238 29.864 153.403 30.4573 152.448 30.8879C151.503 31.3184 150.484 31.5337 149.392 31.5337ZM149.392 28.2574C150.264 28.2574 151.046 28.0264 151.739 27.5643C152.432 27.1023 152.978 26.4932 153.377 25.7372C153.787 24.9706 153.992 24.141 153.992 23.2484C153.992 22.3348 153.782 21.4948 153.361 20.7282C152.952 19.9616 152.401 19.3526 151.708 18.901C151.014 18.439 150.243 18.2079 149.392 18.2079C148.531 18.2079 147.749 18.439 147.045 18.901C146.352 19.3631 145.801 19.9774 145.391 20.7439C144.992 21.5105 144.793 22.3453 144.793 23.2484C144.793 24.183 145.003 25.0283 145.423 25.7844C145.843 26.5405 146.399 27.1443 147.092 27.5958C147.796 28.0369 148.563 28.2574 149.392 28.2574Z" fill="#222222"/>
<path d="M131.756 31.1242V15.3727H135.033V17.0423C135.579 16.3913 136.251 15.8767 137.049 15.4987C137.847 15.1207 138.708 14.9316 139.632 14.9316C140.22 14.9316 140.803 15.0104 141.38 15.1679L140.073 18.4757C139.664 18.3182 139.254 18.2394 138.845 18.2394C138.151 18.2394 137.516 18.4127 136.939 18.7592C136.361 19.0953 135.899 19.5521 135.552 20.1296C135.206 20.7072 135.033 21.3477 135.033 22.0513V31.1242H131.756Z" fill="#222222"/>
<path d="M117.921 31.5339C116.388 31.5339 114.96 31.2398 113.637 30.6518C112.324 30.0532 111.174 29.2289 110.187 28.1788C109.211 27.1182 108.444 25.8948 107.887 24.5087C107.341 23.1226 107.068 21.6472 107.068 20.0825C107.068 18.4339 107.362 16.9165 107.95 15.5304C108.538 14.1442 109.342 12.9419 110.36 11.9233C111.379 10.8942 112.539 10.0961 113.841 9.52905C115.154 8.96199 116.53 8.67847 117.968 8.67847C119.596 8.67847 121.161 9.0565 122.662 9.81257C124.164 10.5686 125.471 11.7028 126.584 13.2149L123.655 14.8058C122.899 13.8607 122.017 13.1466 121.008 12.6636C120.011 12.1805 118.987 11.939 117.937 11.939C116.918 11.939 115.952 12.149 115.039 12.5691C114.125 12.9786 113.316 13.5562 112.613 14.3017C111.909 15.0368 111.353 15.9031 110.943 16.9007C110.544 17.8878 110.345 18.9642 110.345 20.1298C110.345 21.2534 110.539 22.3087 110.927 23.2958C111.327 24.2829 111.873 25.1493 112.566 25.8948C113.269 26.6299 114.078 27.2074 114.991 27.6275C115.915 28.0475 116.903 28.2575 117.953 28.2575C118.73 28.2575 119.475 28.1315 120.189 27.8795C120.903 27.6275 121.565 27.2705 122.174 26.8084C122.794 26.3359 123.334 25.7741 123.796 25.123C124.258 24.4719 124.626 23.7474 124.899 22.9493H120.221V20.051H128.742C128.763 21.6262 128.49 23.1068 127.923 24.4929C127.367 25.8791 126.59 27.1024 125.592 28.163C124.605 29.2131 123.455 30.0375 122.143 30.636C120.83 31.2346 119.423 31.5339 117.921 31.5339Z" fill="#222222"/>
<path d="M101.277 15.3727H104.553V31.1242H101.261L101.135 28.8402C100.673 29.6488 100.049 30.2998 99.2609 30.7934C98.4734 31.2869 97.544 31.5337 96.4729 31.5337C95.3178 31.5337 94.231 31.3184 93.2124 30.8879C92.1938 30.4468 91.2959 29.8378 90.5189 29.0607C89.7523 28.2836 89.1537 27.3911 88.7232 26.383C88.2927 25.3644 88.0774 24.2723 88.0774 23.1067C88.0774 21.983 88.2874 20.9277 88.7075 19.9406C89.1275 18.943 89.7103 18.0714 90.4559 17.3259C91.2014 16.5803 92.0625 15.9975 93.0391 15.5775C94.0262 15.1469 95.0815 14.9316 96.2052 14.9316C97.3498 14.9316 98.3579 15.1942 99.2294 15.7192C100.112 16.2338 100.841 16.8953 101.419 17.7039L101.277 15.3727ZM96.3942 28.3676C97.3183 28.3676 98.1268 28.1419 98.8199 27.6903C99.513 27.2283 100.049 26.6087 100.427 25.8317C100.815 25.0546 101.009 24.1935 101.009 23.2484C101.009 22.2928 100.815 21.4265 100.427 20.6494C100.038 19.8724 99.4972 19.258 98.8041 18.8065C98.1216 18.3445 97.3183 18.1134 96.3942 18.1134C95.4806 18.1134 94.6458 18.3445 93.8897 18.8065C93.1336 19.2685 92.5351 19.8881 92.094 20.6652C91.653 21.4422 91.4325 22.3033 91.4325 23.2484C91.4325 24.204 91.6582 25.0703 92.1098 25.8474C92.5718 26.614 93.1756 27.2283 93.9212 27.6903C94.6773 28.1419 95.5016 28.3676 96.3942 28.3676Z" fill="#222222"/>
<path d="M78.6638 31.5337C77.2147 31.5337 75.8916 31.1609 74.6945 30.4153C73.5078 29.6698 72.5575 28.6722 71.8434 27.4226C71.1399 26.1624 70.7881 24.7711 70.7881 23.2484C70.7881 22.0933 70.9929 21.017 71.4024 20.0194C71.8119 19.0113 72.3737 18.1292 73.0878 17.3731C73.8124 16.6065 74.6524 16.008 75.608 15.5775C76.5636 15.1469 77.5822 14.9316 78.6638 14.9316C79.8714 14.9316 80.9793 15.1837 81.9874 15.6877C82.9955 16.1813 83.8566 16.8691 84.5706 17.7512C85.2847 18.6227 85.8097 19.6308 86.1458 20.7754C86.4818 21.9095 86.5816 23.1172 86.445 24.3983H74.3007C74.4372 25.1228 74.6997 25.7792 75.0882 26.3672C75.4873 26.9448 75.9913 27.4016 76.6004 27.7376C77.2199 28.0736 77.9078 28.2469 78.6638 28.2574C79.4619 28.2574 80.1865 28.0579 80.8375 27.6588C81.4991 27.2598 82.0399 26.7085 82.4599 26.0049L85.7835 26.7767C85.1534 28.1734 84.2031 29.318 82.9325 30.2106C81.6619 31.0927 80.239 31.5337 78.6638 31.5337ZM74.1904 21.8938H83.1372C83.0322 21.1377 82.7645 20.4552 82.3339 19.8461C81.9139 19.2265 81.3836 18.7382 80.743 18.3812C80.113 18.0137 79.4199 17.8299 78.6638 17.8299C77.9183 17.8299 77.2252 18.0084 76.5846 18.3655C75.9546 18.7225 75.4295 19.2108 75.0095 19.8303C74.5999 20.4394 74.3269 21.1272 74.1904 21.8938Z" fill="#222222"/>
<path d="M64.9023 7.49729H68.1786V31.1245H64.9023V28.809C64.3877 29.6281 63.7156 30.2897 62.8861 30.7937C62.0565 31.2873 61.0851 31.534 59.972 31.534C58.8274 31.534 57.7563 31.3188 56.7587 30.8882C55.7611 30.4577 54.8791 29.8644 54.1125 29.1083C53.3564 28.3417 52.7631 27.4597 52.3326 26.4621C51.902 25.4645 51.6868 24.3934 51.6868 23.2488C51.6868 22.1042 51.902 21.0331 52.3326 20.0355C52.7631 19.0274 53.3564 18.1453 54.1125 17.3892C54.8791 16.6226 55.7611 16.0241 56.7587 15.5935C57.7563 15.163 58.8274 14.9477 59.972 14.9477C61.0851 14.9477 62.0565 15.1998 62.8861 15.7038C63.7156 16.1974 64.3877 16.8484 64.9023 17.657V7.49729ZM60.0035 28.368C60.9276 28.368 61.7362 28.1422 62.4293 27.6907C63.1223 27.2286 63.6579 26.6091 64.0359 25.832C64.4245 25.0549 64.6187 24.1939 64.6187 23.2488C64.6187 22.2932 64.4245 21.4268 64.0359 20.6498C63.6474 19.8727 63.1066 19.2584 62.4135 18.8068C61.731 18.3448 60.9276 18.1138 60.0035 18.1138C59.09 18.1138 58.2551 18.3448 57.4991 18.8068C56.7535 19.2689 56.1549 19.8885 55.7034 20.6655C55.2624 21.4426 55.0418 22.3037 55.0418 23.2488C55.0418 24.2044 55.2676 25.0707 55.7191 25.8478C56.1812 26.6143 56.785 27.2286 57.5306 27.6907C58.2866 28.1422 59.111 28.368 60.0035 28.368Z" fill="#222222"/>
<path d="M45.3184 31.1249V9.07286H48.5947V31.1249H45.3184Z" fill="#222222"/>
<path fill-rule="evenodd" clip-rule="evenodd" d="M14.6892 0.00116879C17.7887 0.040189 20.7937 1.03633 23.2633 2.84346C25.7329 4.6506 27.5371 7.1736 28.4114 10.0424C29.2856 12.9111 29.1838 15.9746 28.1209 18.7835L21.9854 16.623C22.5695 15.0794 22.6254 13.3959 22.145 11.8194C21.6645 10.2428 20.673 8.85631 19.3158 7.8632C17.9587 6.87009 16.3073 6.32266 14.604 6.30122C12.9007 6.27978 11.235 6.78545 9.85147 7.74405C8.4679 8.70266 7.4392 10.0637 6.91628 11.6276C6.39335 13.1915 6.40372 14.8759 6.94588 16.4337C7.48804 17.9915 8.53343 19.3407 9.92872 20.2834C11.324 21.226 12.9957 21.7126 14.6987 21.6716L14.8615 27.9702C11.7627 28.0448 8.72073 27.1595 6.18177 25.4441C3.64281 23.7287 1.74052 21.2736 0.75398 18.439C-0.232566 15.6043 -0.251446 12.5393 0.700107 9.6935C1.65166 6.84772 3.52356 4.371 6.04121 2.62665C8.55886 0.882304 11.5897 -0.0378515 14.6892 0.00116879Z" fill="#D2D2D2"/>
<path d="M18.9392 32.0697C18.9392 34.3315 17.0385 36.1651 14.6937 36.1651C12.349 36.1651 10.4482 34.3315 10.4482 32.0697C10.4482 29.8079 12.349 27.9743 14.6937 27.9743C17.0385 27.9743 18.9392 29.8079 18.9392 32.0697Z" fill="#222222"/>
</svg>
