<svg width="170" height="37" viewBox="0 0 170 37" fill="none" xmlns="http://www.w3.org/2000/svg">
<g clip-path="url(#clip0_191_192)">
<path d="M153.301 31.4826H149.895L144.384 15.8032H147.74L151.623 26.8102L155.473 15.8032H158.928L162.777 26.8102L166.644 15.8032H170L164.505 31.4826H161.066L157.184 20.3973L153.301 31.4826Z" fill="#121212"/>
<path d="M139.278 15.803H142.7V31.4825H139.262L139.13 29.2089C138.648 30.0138 137.995 30.6619 137.172 31.1532C136.35 31.6445 135.379 31.8901 134.26 31.8901C133.054 31.8901 131.919 31.6758 130.855 31.2473C129.791 30.8082 128.853 30.202 128.041 29.4284C127.241 28.6549 126.615 27.7664 126.166 26.7629C125.716 25.749 125.491 24.6619 125.491 23.5016C125.491 22.3832 125.711 21.3326 126.149 20.3501C126.588 19.357 127.197 18.4894 127.976 17.7473C128.754 17.0051 129.654 16.425 130.674 16.0069C131.705 15.5783 132.807 15.364 133.981 15.364C135.176 15.364 136.229 15.6253 137.139 16.148C138.061 16.6602 138.823 17.3187 139.426 18.1236L139.278 15.803ZM134.178 28.7386C135.143 28.7386 135.988 28.5138 136.712 28.0643C137.436 27.6044 137.995 26.9877 138.39 26.2142C138.796 25.4407 138.999 24.5835 138.999 23.6427C138.999 22.6915 138.796 21.8292 138.39 21.0556C137.984 20.2821 137.419 19.6706 136.695 19.2211C135.982 18.7612 135.143 18.5313 134.178 18.5313C133.224 18.5313 132.352 18.7612 131.562 19.2211C130.772 19.6811 130.147 20.2978 129.687 21.0713C129.226 21.8448 128.996 22.702 128.996 23.6427C128.996 24.594 129.231 25.4563 129.703 26.2298C130.186 26.9929 130.816 27.6044 131.595 28.0643C132.385 28.5138 133.246 28.7386 134.178 28.7386Z" fill="#121212"/>
<path d="M110.989 31.4824V9.53125H114.411V28.2211H124.332V31.4824H110.989Z" fill="#121212"/>
<path d="M104.155 15.803H107.577V31.4825H104.139L104.007 29.2089C103.524 30.0138 102.872 30.6619 102.049 31.1532C101.226 31.6445 100.256 31.8901 99.137 31.8901C97.9305 31.8901 96.7953 31.6758 95.7314 31.2473C94.6675 30.8082 93.7297 30.202 92.918 29.4284C92.1173 28.6549 91.4922 27.7664 91.0425 26.7629C90.5928 25.749 90.3679 24.6619 90.3679 23.5016C90.3679 22.3832 90.5873 21.3326 91.026 20.3501C91.4647 19.357 92.0735 18.4894 92.8522 17.7473C93.631 17.0051 94.5304 16.425 95.5504 16.0069C96.5814 15.5783 97.6837 15.364 98.8573 15.364C100.053 15.364 101.106 15.6253 102.016 16.148C102.937 16.6602 103.7 17.3187 104.303 18.1236L104.155 15.803ZM99.0547 28.7386C100.02 28.7386 100.864 28.5138 101.588 28.0643C102.312 27.6044 102.872 26.9877 103.267 26.2142C103.672 25.4407 103.875 24.5835 103.875 23.6427C103.875 22.6915 103.672 21.8292 103.267 21.0556C102.861 20.2821 102.296 19.6706 101.572 19.2211C100.859 18.7612 100.02 18.5313 99.0547 18.5313C98.1005 18.5313 97.2285 18.7612 96.4388 19.2211C95.6491 19.6811 95.0239 20.2978 94.5633 21.0713C94.1026 21.8448 93.8723 22.702 93.8723 23.6427C93.8723 24.594 94.1081 25.4563 94.5797 26.2298C95.0623 26.9929 95.693 27.6044 96.4717 28.0643C97.2614 28.5138 98.1224 28.7386 99.0547 28.7386Z" fill="#121212"/>
<path d="M80.5355 31.8901C79.0219 31.8901 77.6399 31.519 76.3895 30.7769C75.1501 30.0347 74.1575 29.0417 73.4116 27.7978C72.6768 26.5434 72.3093 25.1584 72.3093 23.6427C72.3093 22.4929 72.5232 21.4215 72.951 20.4285C73.3787 19.425 73.9655 18.5469 74.7114 17.7943C75.4682 17.0313 76.3456 16.4354 77.3437 16.0069C78.3418 15.5783 79.4058 15.364 80.5355 15.364C81.7968 15.364 82.954 15.6149 84.0069 16.1166C85.0599 16.6079 85.9593 17.2926 86.7051 18.1706C87.4509 19.0382 87.9994 20.0417 88.3503 21.1811C88.7013 22.31 88.8055 23.5121 88.6629 24.7873H75.9782C76.1208 25.5086 76.395 26.1619 76.8008 26.7473C77.2176 27.3222 77.7441 27.7769 78.3802 28.1114C79.0274 28.4459 79.7458 28.6183 80.5355 28.6288C81.3691 28.6288 82.1259 28.4302 82.8059 28.033C83.4969 27.6358 84.0618 27.087 84.5005 26.3866L87.9719 27.1549C87.3138 28.5452 86.3212 29.6845 84.9941 30.573C83.6669 31.4511 82.1807 31.8901 80.5355 31.8901ZM75.863 22.2943H85.2079C85.0983 21.5417 84.8186 20.8623 84.3689 20.256C83.9301 19.6393 83.3763 19.1532 82.7072 18.7978C82.0491 18.432 81.3252 18.249 80.5355 18.249C79.7567 18.249 79.0328 18.4267 78.3638 18.7821C77.7057 19.1375 77.1573 19.6236 76.7185 20.2403C76.2908 20.8466 76.0056 21.5312 75.863 22.2943Z" fill="#121212"/>
<path d="M66.1573 7.96338H69.5793V31.4825H66.1573V29.1776C65.6198 29.993 64.9178 30.6515 64.0514 31.1532C63.1849 31.6445 62.1703 31.8902 61.0077 31.8902C59.8121 31.8902 58.6934 31.6759 57.6514 31.2473C56.6094 30.8187 55.6881 30.2282 54.8874 29.4755C54.0977 28.7125 53.478 27.8344 53.0283 26.8414C52.5786 25.8484 52.3538 24.7822 52.3538 23.6428C52.3538 22.5034 52.5786 21.4372 53.0283 20.4442C53.478 19.4407 54.0977 18.5627 54.8874 17.8101C55.6881 17.047 56.6094 16.4512 57.6514 16.0226C58.6934 15.594 59.8121 15.3797 61.0077 15.3797C62.1703 15.3797 63.1849 15.6306 64.0514 16.1324C64.9178 16.6236 65.6198 17.2717 66.1573 18.0766V7.96338ZM61.0406 28.7386C62.0058 28.7386 62.8503 28.5139 63.5742 28.0644C64.2981 27.6045 64.8575 26.9877 65.2524 26.2142C65.6582 25.4407 65.8611 24.5836 65.8611 23.6428C65.8611 22.6916 65.6582 21.8292 65.2524 21.0557C64.8466 20.2822 64.2817 19.6707 63.5578 19.2212C62.8449 18.7613 62.0058 18.5313 61.0406 18.5313C60.0863 18.5313 59.2144 18.7613 58.4247 19.2212C57.6459 19.6811 57.0207 20.2979 56.5491 21.0714C56.0884 21.8449 55.8581 22.702 55.8581 23.6428C55.8581 24.594 56.0939 25.4564 56.5656 26.2299C57.0482 26.993 57.6788 27.6045 58.4576 28.0644C59.2473 28.5139 60.1083 28.7386 61.0406 28.7386Z" fill="#121212"/>
<path d="M45.7056 31.4824V9.53125H49.1276V31.4824H45.7056Z" fill="#121212"/>
<path fill-rule="evenodd" clip-rule="evenodd" d="M14.8003 0.501186C17.9232 0.540028 20.9509 1.53161 23.4392 3.33048C25.9275 5.12935 27.7454 7.64081 28.6262 10.4964C29.5071 13.3521 29.4045 16.4016 28.3336 19.1976L22.1516 17.047C22.7402 15.5105 22.7965 13.8346 22.3125 12.2653C21.8284 10.696 20.8294 9.31582 19.4619 8.32726C18.0945 7.33869 16.4306 6.79376 14.7144 6.77242C12.9982 6.75107 11.32 7.25443 9.92598 8.20865C8.53194 9.16287 7.49546 10.5177 6.96858 12.0745C6.4417 13.6312 6.45215 15.3079 6.99841 16.8586C7.54466 18.4092 8.59797 19.7522 10.0038 20.6906C11.4096 21.629 13.094 22.1133 14.8098 22.0725L14.9739 28.3423C11.8517 28.4165 8.78668 27.5352 6.22852 25.8277C3.67036 24.1202 1.75369 21.6763 0.759682 18.8546C-0.234325 16.0329 -0.253348 12.9819 0.705401 10.1492C1.66415 7.31642 3.55021 4.85103 6.0869 3.11466C8.62359 1.37829 11.6774 0.462344 14.8003 0.501186Z" fill="#D2D2D2"/>
<path d="M19.0845 32.4234C19.0845 34.6748 17.1694 36.5 14.8069 36.5C12.4444 36.5 10.5293 34.6748 10.5293 32.4234C10.5293 30.1719 12.4444 28.3467 14.8069 28.3467C17.1694 28.3467 19.0845 30.1719 19.0845 32.4234Z" fill="#121212"/>
</g>
<defs>
<clipPath id="clip0_191_192">
<rect width="170" height="36" fill="white" transform="translate(0 0.5)"/>
</clipPath>
</defs>
</svg>
